<?xml version="1.0" encoding="UTF-8"?>
<!DOCTYPE svg PUBLIC "-//W3C//DTD SVG 1.1//EN" "http://www.w3.org/Graphics/SVG/1.1/DTD/svg11.dtd">
<!-- Creator: CorelDRAW 2018 (64-Bit) -->
<svg xmlns="http://www.w3.org/2000/svg" xml:space="preserve" width="502px" height="277px" version="1.1" style="shape-rendering:geometricPrecision; text-rendering:geometricPrecision; image-rendering:optimizeQuality; fill-rule:evenodd; clip-rule:evenodd"
viewBox="0 0 333.2 184.12"
 xmlns:xlink="http://www.w3.org/1999/xlink">
 <defs>
  <style type="text/css">
   <![CDATA[
    .str0 {stroke:#2B2A29;stroke-width:1.57;stroke-miterlimit:22.9256}
    .fil1 {fill:#FEFEFE;fill-rule:nonzero}
    .fil0 {fill:red;fill-rule:nonzero}
   ]]>
  </style>
 </defs>
 <g id="Слой_x0020_1">
  <metadata id="CorelCorpID_0Corel-Layer"/>
  <path class="fil0" d="M225.03 118.51l-30.06 0 0 7.65 30.06 0c1.71,0 3.2,0.62 4.41,1.83 1.22,1.22 1.83,2.7 1.83,4.42 0,1.71 -0.61,3.2 -1.83,4.41 -1.21,1.22 -2.7,1.83 -4.41,1.83l-30.06 0 0 17.65 7.65 0 0 -10 22.41 0c2.55,0 4.9,-0.63 6.98,-1.87 7.05,-4.21 8.69,-12.85 5.03,-18.99 -2.38,-4.02 -6.65,-6.93 -12.01,-6.93z"/>
  <polygon class="fil1 str0" points="82.04,118.51 62.48,137.34 82.04,156.17 93,156.17 73.44,137.34 93,118.51 "/>
  <polygon class="fil1 str0" points="32.81,118.58 18.4,118.58 14.33,126.16 36.89,126.16 "/>
  <polygon class="fil1 str0" points="40.88,139.28 49.97,156.17 41.25,156.17 36.25,146.86 15.04,146.86 10.03,156.17 1.31,156.17 10.4,139.28 "/>
  <polygon class="fil1 str0" points="174.66,118.58 160.25,118.58 156.17,126.16 178.74,126.16 "/>
  <polygon class="fil1 str0" points="182.73,139.28 191.82,156.17 183.1,156.17 178.09,146.86 156.89,146.86 151.88,156.17 143.16,156.17 152.25,139.28 "/>
  <polygon class="fil1 str0" points="53.09,156.17 60.64,156.17 60.64,118.38 53.09,118.38 "/>
  <path class="fil1 str0" d="M133.16 120.39c-2.08,-1.25 -4.43,-1.88 -6.98,-1.88l-30.06 0 0 7.65 30.06 0c1.71,0 3.19,0.62 4.41,1.83 1.22,1.22 1.83,2.7 1.83,4.42 0,1.71 -0.61,3.2 -1.83,4.41 -1.21,1.22 -2.7,1.83 -4.41,1.83l-30.06 0 0 17.65 7.65 0 0 -10 22.35 0 5.38 10 8.55 0 -6.5 -12.12c8.91,-5.7 8.62,-18.41 -0.39,-23.79z"/>
  <path class="fil0" d="M279.09 120.39c-2.08,-1.25 -4.43,-1.88 -6.98,-1.88l-30.06 0 0 7.65 30.06 0c1.71,0 3.19,0.62 4.41,1.83 1.21,1.22 1.83,2.7 1.83,4.42 0,1.71 -0.62,3.2 -1.83,4.41 -1.22,1.22 -2.7,1.83 -4.41,1.83l-30.06 0 0 17.65 7.65 0 0 -10 22.34 0 5.39 10 8.55 0 -6.5 -12.12c8.94,-5.72 8.59,-18.43 -0.39,-23.79z"/>
  <path class="fil0" d="M325.53 141.14c0,2.08 -0.73,3.85 -2.2,5.32 -1.47,1.46 -3.23,2.2 -5.29,2.2l-13.75 0c-2.06,0 -3.83,-0.74 -5.29,-2.2 -1.47,-1.47 -2.2,-3.24 -2.2,-5.32l0 -7.47c0,-2.07 0.73,-3.85 2.2,-5.31 1.46,-1.47 3.23,-2.2 5.29,-2.2l13.75 0c2.06,0 3.82,0.73 5.29,2.2 1.47,1.46 2.2,3.24 2.2,5.31l0 7.47zm-7.43 -22.63l-13.87 0c-8.25,0 -15.1,6.78 -15.1,15.13l0 7.53c0,8.36 6.85,15.13 15.1,15.13l13.87 0c8.25,0 15.1,-6.77 15.1,-15.13l0 -7.53c0,-8.35 -6.85,-15.13 -15.1,-15.13z"/>
  <polygon class="fil0" points="93.96,183.95 91.21,183.95 91.21,173.77 87.55,173.77 87.55,171.38 97.6,171.38 97.6,173.77 93.96,173.77 "/>
  <path class="fil0" d="M114.9 177.66c0,-2.22 -1.63,-3.93 -3.86,-3.93 -2.2,0 -3.84,1.71 -3.84,3.93 0,2.23 1.64,3.93 3.84,3.93 2.23,0 3.86,-1.7 3.86,-3.93zm2.75 -0.05c0,3.63 -2.89,6.51 -6.64,6.51 -3.34,0 -5.92,-2.2 -6.45,-5.24l-2.44 0 0 5.07 -2.81 0 0 -12.57 2.81 0 0 5.06 2.46 0c0.58,-2.99 3.21,-5.24 6.52,-5.24 3.75,0 6.55,2.79 6.55,6.41z"/>
  <polygon class="fil0" points="119.89,171.38 122.64,171.38 122.64,176.21 128.09,176.21 128.09,171.38 130.84,171.38 130.84,183.95 128.09,183.95 128.09,178.65 122.64,178.65 122.64,183.95 119.89,183.95 "/>
  <polygon class="fil0" points="136.38,183.95 133.71,183.95 133.71,171.38 136.45,171.38 136.45,179.62 142.18,171.38 145.01,171.38 145.01,183.95 142.27,183.95 142.27,175.49 "/>
  <polygon class="fil0" points="147.88,171.38 150.63,171.38 150.63,176.21 156.09,176.21 156.09,171.38 158.83,171.38 158.83,183.95 156.09,183.95 156.09,178.65 150.63,178.65 150.63,183.95 147.88,183.95 "/>
  <polygon class="fil0" points="170.58,171.38 170.58,173.84 164.45,173.84 164.45,183.95 161.7,183.95 161.7,171.38 "/>
  <path class="fil0" d="M183.99 179.14l-1.72 -4.6 -1.76 4.6 3.48 0zm-3.03 -7.76l2.74 0 5.1 12.57 -3.03 0 -1.01 -2.64 -5.01 0 -1 2.64 -2.89 0 5.1 -12.57z"/>
  <polygon class="fil0" points="193.9,183.95 191.15,183.95 191.15,173.77 187.49,173.77 187.49,171.38 197.54,171.38 197.54,173.77 193.9,173.77 "/>
  <polygon class="fil0" points="199.24,171.38 208.48,171.38 208.48,173.77 201.99,173.77 201.99,176.37 207.59,176.37 207.59,178.6 201.99,178.6 201.99,181.56 208.66,181.56 208.66,183.95 199.24,183.95 "/>
  <path class="fil0" d="M209.74 184.02l0.22 -2.32c0,0 0.21,0.04 0.39,0.04 1.15,0 1.69,-0.67 1.78,-1.9l0.66 -8.46 9.6 0 0 12.57 -2.74 0 0 -10.11 -4.29 0 -0.5 5.8c-0.22,2.91 -1.69,4.48 -4.36,4.48 -0.42,0 -0.76,-0.1 -0.76,-0.1z"/>
  <path class="fil0" d="M230.43 181.63c1.35,0 2.23,-0.86 2.23,-2.01 0,-1.15 -0.88,-1.99 -2.23,-1.99l-2.42 0 0 4 2.42 0zm-5.17 -10.25l2.75 0 0 3.99 2.67 0c2.84,0 4.72,1.74 4.72,4.25 0,2.51 -1.93,4.33 -4.77,4.33l-5.37 0 0 -12.57z"/>
  <polygon class="fil0" points="237.54,171.38 246.78,171.38 246.78,173.77 240.28,173.77 240.28,176.37 245.88,176.37 245.88,178.6 240.28,178.6 240.28,181.56 246.96,181.56 246.96,183.95 237.54,183.95 "/>
  <polygon class="fil0" points="256.5,179.9 333.2,179.9 333.2,175.61 256.5,175.61 "/>
  <polygon class="fil0" points="1.31,179.9 78.01,179.9 78.01,175.61 1.31,175.61 "/>
  <polygon class="fil0" points="175.88,15.52 158.63,15.52 153.4,24.59 181.12,24.59 "/>
  <path class="fil0" d="M196.92 48.57c-2.86,-4.8 -7.97,-8.28 -14.39,-8.28l-34.86 0 -11.67 20.21 10.76 0 6.46 -11.14 29.31 0.09c2.05,0 3.83,0.73 5.28,2.19 1.46,1.45 2.2,3.23 2.2,5.28 0,2.05 -0.74,3.83 -2.2,5.28 -1.45,1.46 -3.23,2.19 -5.28,2.19l-26.76 0 0 21.13 9.15 0 0 -11.97 17.61 0c3.06,0 5.87,-0.76 8.36,-2.25 8.44,-5.03 10.4,-15.37 6.03,-22.73z"/>
  <path class="fil0" d="M143.53 7.65c-0.63,0 -1.22,0.34 -1.54,0.88l-23.73 41.1c-0.31,0.55 -0.31,1.23 0,1.78l23.73 41.09c0.32,0.55 0.91,0.89 1.54,0.89l47.46 0c0.63,0 1.21,-0.34 1.53,-0.89l23.73 -41.1c0.31,-0.54 0.31,-1.22 0,-1.77l-23.73 -41.1c-0.32,-0.54 -0.9,-0.88 -1.53,-0.88l-47.46 0zm47.46 93.39l-47.46 0c-3.36,0 -6.48,-1.81 -8.16,-4.71l-23.73 -41.1c-1.67,-2.91 -1.67,-6.52 0,-9.42l23.73 -41.1c1.68,-2.91 4.81,-4.71 8.16,-4.71l47.46 0c3.35,0 6.47,1.8 8.15,4.71l23.73 41.1c1.68,2.9 1.68,6.51 0,9.42l-23.73 41.1c-1.67,2.9 -4.8,4.71 -8.15,4.71z"/>
 </g>
</svg>
